<?xml version="1.0" encoding="utf-8"?>
<!-- Generator: Adobe Illustrator 16.0.0, SVG Export Plug-In . SVG Version: 6.00 Build 0)  -->
<!DOCTYPE svg PUBLIC "-//W3C//DTD SVG 1.1//EN" "http://www.w3.org/Graphics/SVG/1.1/DTD/svg11.dtd">
<svg version="1.1" id="Capa_1" xmlns="http://www.w3.org/2000/svg" xmlns:xlink="http://www.w3.org/1999/xlink" x="0px" y="0px"
	 width="80px" height="80px" viewBox="0 0 80 80" enable-background="new 0 0 80 80" xml:space="preserve">
<g>
	<path fill="#08C076" d="M63.276,18.794L34.9,58.644c5.238,4.621,10.371,7.84,12.867,8.089c5.488-0.548,23.715-15.424,27.793-28.08
		c0.664-1.653,1.033-3.47,1.033-5.374C76.594,25.661,70.732,19.419,63.276,18.794z"/>
	<path fill="#08C076" d="M41.953,13.486c-4.838,1.133-8.549,4.586-10.242,8.863c0,0-0.564,1.479-1.932,1.8
		c-1.365,0.319-2.526-0.757-2.526-0.757c-3.419-3.082-8.26-4.533-13.098-3.401C6.32,21.825,1.462,29.651,3.292,37.472
		c0.434,1.854,1.209,3.538,2.229,4.996c3.736,6.212,11.716,12.104,19.09,16.065l18.55-45.267
		C42.759,13.327,42.356,13.392,41.953,13.486z"/>
</g>
</svg>
