<?xml version="1.0" encoding="utf-8"?>
<!-- Generator: Adobe Illustrator 16.0.0, SVG Export Plug-In . SVG Version: 6.00 Build 0)  -->
<!DOCTYPE svg PUBLIC "-//W3C//DTD SVG 1.1//EN" "http://www.w3.org/Graphics/SVG/1.1/DTD/svg11.dtd">
<svg version="1.1" id="Capa_1" xmlns="http://www.w3.org/2000/svg" xmlns:xlink="http://www.w3.org/1999/xlink" x="0px" y="0px"
	 width="48px" height="48px" viewBox="0 0 48 48" enable-background="new 0 0 48 48" xml:space="preserve">
<g>
	<path fill="#08C076" d="M35.457,19.479C35.457,13.146,30.324,8,24.002,8c-6.32,0-11.459,5.146-11.459,11.479
		c0,2.51,1.131,4.618,2.16,6.697c1.792,3.627,5.099,9.335,6.838,12.428C21.986,39.397,23.01,40.01,24.15,40
		c1.137-0.008,2.146-0.599,2.582-1.396c1.701-3.093,4.61-8.045,6.594-12.467C34.271,24.037,35.457,21.959,35.457,19.479z M24,15.722
		c2.073,0,3.756,1.678,3.756,3.757c0,2.072-1.683,3.76-3.756,3.76c-2.068,0-3.756-1.688-3.756-3.76
		C20.244,17.399,21.932,15.722,24,15.722z"/>
</g>
</svg>
