<?xml version="1.0" encoding="utf-8"?>
<!-- Generator: Adobe Illustrator 16.0.0, SVG Export Plug-In . SVG Version: 6.00 Build 0)  -->
<!DOCTYPE svg PUBLIC "-//W3C//DTD SVG 1.1//EN" "http://www.w3.org/Graphics/SVG/1.1/DTD/svg11.dtd">
<svg version="1.1" id="Capa_1" xmlns="http://www.w3.org/2000/svg" xmlns:xlink="http://www.w3.org/1999/xlink" x="0px" y="0px"
	 width="48px" height="48px" viewBox="0 0 48 48" enable-background="new 0 0 48 48" xml:space="preserve">
<g>
	<g>
		<path fill="#08C076" d="M32.919,8c-3.104,0-5.851,1.678-7.488,4.197c0,0-0.554,0.875-1.431,0.875
			c-0.876,0-1.429-0.875-1.429-0.875C20.932,9.678,18.193,8,15.091,8C10.067,8,6,12.343,6,17.697c0,1.27,0.232,2.48,0.645,3.582
			C9.19,29.718,20.571,39.635,24,40c3.429-0.365,14.809-10.282,17.354-18.72C41.769,20.178,42,18.967,42,17.697
			C42,12.343,37.934,8,32.919,8z"/>
	</g>
	<path fill="#FFFFFF" d="M33.025,19.447c-0.091-0.607-3.551-1.622-3.85-2.052c-0.301-0.428-0.648-2.813-0.964-2.894
		c-0.314-0.082-0.873,2.767-1.208,3.492c-0.233,0.519-1.594,2.539-1.837,2.866c0,0-5.821,0.487-6.145,0.349
		c-0.324-0.142-2.299-2.982-2.649-2.772c-0.363,0.222,1.803,4.064,1.803,4.064s0.516,2.102,0.454,3.404
		c-0.032,0.618-0.601,1.889-0.543,2.45c0.079,0.752,0.161,2.896,0.346,3.054c0.183,0.147,0.93,0.092,1.035,0
		c0.11-0.104,0.074-2.819,0.074-2.819s1.184-2.564,1.979-2.968c0.793-0.39,4.905,0.202,5.162,0.579
		c0.255,0.378,0.777,4.842,0.898,4.969c0.116,0.125,0.913,0.154,1.074,0.038c0.149-0.129,0.12-7.595,0.12-7.595
		c0.143-0.291,0.808-2.59,0.999-2.603c0.264-0.024,1.208,0.303,2.054,0.242C32.672,21.193,33.114,20.042,33.025,19.447z"/>
</g>
</svg>
