<?xml version="1.0" encoding="utf-8"?>
<!-- Generator: Adobe Illustrator 16.0.0, SVG Export Plug-In . SVG Version: 6.00 Build 0)  -->
<!DOCTYPE svg PUBLIC "-//W3C//DTD SVG 1.1//EN" "http://www.w3.org/Graphics/SVG/1.1/DTD/svg11.dtd">
<svg version="1.1" id="Capa_1" xmlns="http://www.w3.org/2000/svg" xmlns:xlink="http://www.w3.org/1999/xlink" x="0px" y="0px"
	 width="200px" height="96px" viewBox="0 0 200 96" enable-background="new 0 0 200 96" xml:space="preserve">
<g>
	<g>
		<g>
			<path fill="#08C076" d="M55.783,61.628h5.46c0.3,0,0.675,0.01,1.125,0.03c0.45,0.021,0.919,0.085,1.41,0.195
				c0.49,0.11,0.98,0.29,1.47,0.54c0.49,0.25,0.93,0.605,1.32,1.065s0.705,1.04,0.945,1.74c0.24,0.7,0.36,1.56,0.36,2.58
				c0,1-0.149,1.885-0.447,2.655c-0.298,0.771-0.721,1.42-1.267,1.95c-0.546,0.53-1.197,0.93-1.952,1.2
				c-0.756,0.27-1.58,0.405-2.474,0.405h-3.25v9.06h-2.7V61.628z M58.482,71.828h3.15c0.96,0,1.79-0.34,2.49-1.02
				c0.7-0.68,1.05-1.729,1.05-3.15c0-1.2-0.29-2.145-0.87-2.835s-1.53-1.035-2.85-1.035h-2.97V71.828z"/>
			<path fill="#08C076" d="M72.042,75.308c0,0.621,0.015,1.29,0.044,2.01s0.142,1.39,0.338,2.01
				c0.196,0.621,0.495,1.136,0.896,1.545c0.401,0.41,0.984,0.615,1.748,0.615c0.587,0,1.057-0.135,1.41-0.405s0.622-0.6,0.808-0.99
				s0.309-0.8,0.368-1.23c0.059-0.43,0.088-0.795,0.088-1.095h2.58c0,0.42-0.075,0.955-0.225,1.605
				c-0.15,0.65-0.425,1.28-0.825,1.89c-0.4,0.61-0.95,1.13-1.65,1.56c-0.701,0.43-1.601,0.645-2.7,0.645
				c-1.98,0-3.405-0.68-4.275-2.04c-0.87-1.36-1.305-3.43-1.305-6.21c0-1,0.065-2.015,0.195-3.045c0.13-1.03,0.4-1.96,0.81-2.79
				c0.41-0.83,0.99-1.51,1.74-2.04c0.75-0.53,1.745-0.795,2.985-0.795c1.22,0,2.19,0.24,2.91,0.72s1.26,1.095,1.62,1.845
				c0.36,0.75,0.589,1.585,0.69,2.505c0.1,0.92,0.15,1.811,0.15,2.67v1.02H72.042z M77.742,73.328v-0.87
				c0-0.44-0.039-0.895-0.117-1.365c-0.079-0.47-0.221-0.895-0.426-1.275c-0.206-0.38-0.485-0.69-0.837-0.93
				c-0.353-0.24-0.803-0.36-1.351-0.36c-0.646,0-1.161,0.175-1.542,0.525c-0.382,0.35-0.671,0.755-0.867,1.215
				s-0.323,0.925-0.381,1.395c-0.059,0.47-0.088,0.825-0.088,1.065v0.6H77.742z"/>
			<path fill="#08C076" d="M84.252,62.289h2.52v4.68h2.79v1.98h-2.79v10.32c0,0.64,0.11,1.1,0.33,1.38
				c0.22,0.28,0.66,0.42,1.32,0.42c0.28,0,0.5-0.01,0.66-0.03c0.16-0.02,0.31-0.04,0.45-0.06v2.07c-0.161,0.04-0.41,0.08-0.75,0.12
				c-0.34,0.04-0.771,0.06-1.29,0.06c-0.66,0-1.2-0.065-1.62-0.195s-0.75-0.33-0.99-0.6c-0.24-0.27-0.405-0.604-0.495-1.005
				c-0.09-0.4-0.135-0.859-0.135-1.38v-11.1h-2.34v-1.98h2.34V62.289z"/>
			<path fill="#08C076" d="M99.162,61.628h2.61h0.81l7.08,17.88h0.06v-17.88h2.64v21.42h-2.61h-1.02l-6.87-17.34h-0.06v17.34h-2.64
				V61.628z"/>
			<path fill="#08C076" d="M126.642,83.048h-2.4v-1.89h-0.06c-0.34,0.74-0.88,1.31-1.62,1.71c-0.74,0.4-1.5,0.6-2.28,0.6
				c-1.06,0-1.875-0.175-2.445-0.525s-0.99-0.785-1.26-1.305c-0.27-0.52-0.425-1.075-0.465-1.665c-0.04-0.589-0.06-1.125-0.06-1.605
				v-11.4h2.52v11.1c0,0.3,0.015,0.64,0.045,1.02c0.03,0.38,0.125,0.735,0.285,1.065c0.16,0.33,0.395,0.605,0.705,0.825
				c0.31,0.22,0.754,0.33,1.335,0.33c0.34,0,0.695-0.06,1.065-0.18c0.37-0.12,0.715-0.31,1.035-0.57
				c0.319-0.259,0.58-0.595,0.78-1.005c0.2-0.41,0.3-0.905,0.3-1.485v-11.1h2.52V83.048z"/>
			<path fill="#08C076" d="M130.481,66.968h2.4v1.89h0.06c0.34-0.74,0.88-1.31,1.62-1.71c0.739-0.4,1.5-0.6,2.28-0.6
				c0.96,0,1.715,0.195,2.265,0.585c0.55,0.39,0.955,1.045,1.215,1.965c0.36-0.7,0.875-1.3,1.545-1.8
				c0.67-0.5,1.425-0.75,2.265-0.75c1.06,0,1.875,0.175,2.445,0.525c0.57,0.35,0.99,0.785,1.26,1.305s0.425,1.075,0.465,1.665
				s0.06,1.125,0.06,1.605v11.4h-2.52v-11.1c0-0.3-0.015-0.64-0.045-1.02c-0.03-0.379-0.115-0.735-0.255-1.065
				c-0.14-0.33-0.355-0.604-0.645-0.825c-0.291-0.22-0.695-0.33-1.215-0.33c-0.3,0-0.625,0.05-0.975,0.15
				c-0.351,0.1-0.675,0.275-0.975,0.525c-0.3,0.25-0.55,0.585-0.75,1.005c-0.2,0.42-0.3,0.94-0.3,1.56v11.1h-2.52v-11.1
				c0-0.3-0.015-0.64-0.045-1.02c-0.03-0.379-0.115-0.735-0.255-1.065c-0.14-0.33-0.355-0.604-0.645-0.825
				c-0.29-0.22-0.695-0.33-1.215-0.33c-0.3,0-0.625,0.05-0.975,0.15c-0.35,0.1-0.675,0.275-0.975,0.525
				c-0.3,0.25-0.55,0.585-0.75,1.005c-0.2,0.42-0.3,0.94-0.3,1.56v11.1h-2.52V66.968z"/>
			<path fill="#08C076" d="M152.201,61.628h2.52v7.17h0.06c0.28-0.7,0.76-1.25,1.44-1.65c0.68-0.4,1.44-0.6,2.28-0.6
				c1.08,0,1.945,0.285,2.595,0.855s1.145,1.275,1.485,2.115c0.34,0.84,0.56,1.755,0.66,2.745c0.1,0.99,0.15,1.905,0.15,2.745
				c0,1.14-0.1,2.22-0.3,3.24c-0.2,1.02-0.51,1.915-0.93,2.685c-0.42,0.771-0.965,1.385-1.635,1.845
				c-0.67,0.46-1.465,0.69-2.385,0.69c-0.44,0-0.85-0.07-1.23-0.21c-0.38-0.14-0.725-0.32-1.035-0.54
				c-0.311-0.22-0.57-0.475-0.78-0.765c-0.21-0.29-0.355-0.585-0.435-0.885h-0.06v1.98h-2.4V61.628z M154.571,75.008
				c0,0.82,0.04,1.61,0.119,2.37c0.079,0.76,0.238,1.43,0.475,2.01c0.238,0.581,0.564,1.045,0.981,1.395
				c0.416,0.35,0.96,0.525,1.634,0.525c0.574,0,1.05-0.154,1.426-0.465c0.376-0.31,0.673-0.745,0.891-1.305
				c0.218-0.56,0.372-1.225,0.461-1.995c0.089-0.77,0.134-1.615,0.134-2.535c0-0.96-0.044-1.83-0.134-2.61
				c-0.089-0.78-0.243-1.44-0.461-1.98c-0.218-0.54-0.515-0.96-0.891-1.26c-0.376-0.3-0.852-0.45-1.426-0.45
				c-0.673,0-1.218,0.18-1.634,0.54c-0.417,0.36-0.743,0.84-0.981,1.44c-0.237,0.6-0.396,1.275-0.475,2.025
				S154.571,74.229,154.571,75.008z"/>
			<path fill="#08C076" d="M168.551,75.308c0,0.621,0.015,1.29,0.044,2.01s0.142,1.39,0.338,2.01
				c0.196,0.621,0.495,1.136,0.896,1.545c0.401,0.41,0.984,0.615,1.748,0.615c0.587,0,1.057-0.135,1.41-0.405s0.622-0.6,0.808-0.99
				s0.309-0.8,0.368-1.23c0.059-0.43,0.088-0.795,0.088-1.095h2.58c0,0.42-0.075,0.955-0.225,1.605
				c-0.15,0.65-0.425,1.28-0.825,1.89c-0.4,0.61-0.95,1.13-1.65,1.56c-0.701,0.43-1.601,0.645-2.7,0.645
				c-1.98,0-3.405-0.68-4.275-2.04c-0.87-1.36-1.305-3.43-1.305-6.21c0-1,0.065-2.015,0.195-3.045c0.13-1.03,0.4-1.96,0.81-2.79
				c0.41-0.83,0.99-1.51,1.74-2.04c0.75-0.53,1.745-0.795,2.985-0.795c1.22,0,2.19,0.24,2.91,0.72s1.26,1.095,1.62,1.845
				c0.36,0.75,0.589,1.585,0.69,2.505c0.1,0.92,0.15,1.811,0.15,2.67v1.02H168.551z M174.25,73.328v-0.87
				c0-0.44-0.039-0.895-0.117-1.365c-0.079-0.47-0.221-0.895-0.426-1.275c-0.206-0.38-0.485-0.69-0.837-0.93
				c-0.353-0.24-0.803-0.36-1.351-0.36c-0.646,0-1.161,0.175-1.542,0.525c-0.382,0.35-0.671,0.755-0.867,1.215
				s-0.323,0.925-0.381,1.395c-0.059,0.47-0.088,0.825-0.088,1.065v0.6H174.25z"/>
			<path fill="#08C076" d="M180.01,66.968h2.52v2.4h0.06c0.18-0.379,0.375-0.74,0.585-1.08s0.455-0.64,0.735-0.9
				c0.28-0.26,0.595-0.465,0.945-0.615c0.35-0.15,0.754-0.225,1.215-0.225c0.5,0,0.87,0.06,1.11,0.18v2.46
				c-0.12-0.02-0.275-0.045-0.465-0.075c-0.19-0.03-0.485-0.045-0.885-0.045c-0.32,0-0.67,0.075-1.05,0.225s-0.735,0.38-1.065,0.69
				s-0.61,0.705-0.84,1.185c-0.23,0.48-0.345,1.05-0.345,1.71v10.17h-2.52V66.968z"/>
			<path fill="#08C076" d="M196.09,71.678c0-1.02-0.165-1.8-0.495-2.34c-0.33-0.54-0.956-0.81-1.875-0.81
				c-0.2,0-0.45,0.025-0.75,0.075c-0.3,0.05-0.585,0.155-0.855,0.315s-0.505,0.405-0.705,0.735c-0.2,0.33-0.3,0.775-0.3,1.335
				c0,0.48,0.115,0.87,0.345,1.17c0.229,0.3,0.53,0.555,0.9,0.765s0.79,0.385,1.26,0.525c0.47,0.14,0.955,0.29,1.455,0.45
				c0.48,0.16,0.955,0.335,1.425,0.525c0.47,0.19,0.89,0.45,1.26,0.78c0.37,0.33,0.67,0.75,0.9,1.26
				c0.229,0.51,0.345,1.165,0.345,1.965c0,0.84-0.13,1.575-0.39,2.205s-0.62,1.155-1.08,1.575c-0.46,0.42-1.01,0.735-1.65,0.945
				s-1.33,0.315-2.07,0.315c-1.36,0-2.415-0.22-3.165-0.66c-0.75-0.439-1.3-0.964-1.65-1.575c-0.35-0.61-0.555-1.235-0.615-1.875
				s-0.09-1.17-0.09-1.59h2.52c0,0.48,0.04,0.945,0.12,1.395c0.08,0.45,0.229,0.85,0.45,1.2c0.22,0.35,0.525,0.625,0.915,0.825
				c0.39,0.2,0.895,0.3,1.515,0.3c0.2,0,0.45-0.03,0.75-0.09s0.595-0.19,0.885-0.39c0.29-0.2,0.535-0.47,0.735-0.81
				c0.2-0.34,0.3-0.8,0.3-1.38c0-0.54-0.115-0.985-0.345-1.335c-0.23-0.35-0.53-0.64-0.9-0.87c-0.37-0.229-0.79-0.425-1.26-0.585
				c-0.47-0.16-0.945-0.32-1.425-0.48c-0.48-0.16-0.96-0.334-1.44-0.525c-0.48-0.19-0.905-0.445-1.275-0.765
				c-0.37-0.32-0.67-0.74-0.9-1.26c-0.23-0.52-0.345-1.19-0.345-2.01c0-0.74,0.135-1.39,0.405-1.95s0.64-1.025,1.11-1.395
				c0.47-0.37,1.015-0.645,1.635-0.825c0.62-0.18,1.279-0.27,1.98-0.27c1.16,0,2.07,0.18,2.73,0.54c0.66,0.36,1.15,0.8,1.47,1.32
				c0.32,0.521,0.515,1.076,0.585,1.665c0.07,0.59,0.105,1.125,0.105,1.605H196.09z"/>
		</g>
	</g>
	<g>
		<path fill="#08C076" d="M33.613,65.46c-0.837-0.837-2.087-1.165-3.229-0.845c0.324-1.135,0.02-2.368-0.845-3.229
			c-0.619-0.623-1.448-0.966-2.331-0.966s-1.711,0.343-2.332,0.966c-1.123,1.124-1.278,2.877-0.403,4.172l-7.915,7.915
			c-0.54-0.364-1.185-0.563-1.839-0.563c-0.881,0-1.71,0.343-2.332,0.966c-0.623,0.623-0.967,1.452-0.966,2.333
			c0,0.881,0.343,1.707,0.966,2.33c0.836,0.838,2.087,1.164,3.227,0.846c-0.323,1.131-0.019,2.367,0.846,3.227
			c0.623,0.624,1.449,0.968,2.331,0.968s1.711-0.344,2.332-0.968c1.123-1.123,1.277-2.875,0.403-4.17l7.915-7.916
			c0.539,0.363,1.185,0.563,1.839,0.563c0.884,0,1.71-0.343,2.333-0.967c0.622-0.622,0.965-1.45,0.966-2.331
			C34.579,66.91,34.236,66.083,33.613,65.46z M19.754,79.521c0.386,0.487,0.344,1.187-0.098,1.628c-0.464,0.464-1.271,0.461-1.732,0
			c-0.383-0.384-0.471-0.961-0.223-1.437c0.365-0.7,0.234-1.542-0.321-2.091c-0.332-0.34-0.782-0.526-1.263-0.526
			c-0.288,0-0.573,0.069-0.832,0.204c-0.455,0.238-1.059,0.152-1.434-0.223c-0.232-0.232-0.361-0.541-0.361-0.867
			s0.129-0.636,0.361-0.866c0.43-0.428,1.155-0.47,1.629-0.097c0.691,0.544,1.756,0.479,2.371-0.139l8.257-8.255
			c0.642-0.641,0.7-1.663,0.137-2.373c-0.385-0.488-0.343-1.187,0.099-1.629c0.463-0.462,1.271-0.459,1.732,0
			c0.383,0.384,0.471,0.961,0.222,1.438c-0.364,0.701-0.233,1.542,0.322,2.09c0.532,0.543,1.405,0.68,2.095,0.322
			c0.454-0.24,1.058-0.152,1.434,0.222c0.232,0.23,0.361,0.542,0.361,0.868c0,0.326-0.129,0.635-0.361,0.866
			c-0.428,0.428-1.156,0.467-1.627,0.098c-0.688-0.543-1.75-0.485-2.373,0.136l-8.257,8.257
			C19.253,77.789,19.192,78.811,19.754,79.521z"/>
		<g>
			<path opacity="0.4" fill="#08C076" d="M40.818,66.342l3.21-0.815c-1.526-4.965-4.769-9.172-9.032-11.953l-1.659,2.856
				C36.842,58.766,39.518,62.249,40.818,66.342z"/>
			<path opacity="0.7" fill="#08C076" d="M39.293,86.74C42.83,82.842,45,77.678,45,72c0-1.486-0.152-2.937-0.433-4.34l-3.212,0.815
				c0.215,1.143,0.344,2.319,0.344,3.524c0,4.756-1.805,9.096-4.741,12.4L39.293,86.74z"/>
			<path fill="#08C076" d="M35.4,85.959c-3.305,2.941-7.645,4.74-12.4,4.74C12.688,90.699,4.301,82.312,4.301,72
				c0-6.297,3.138-11.864,7.92-15.255l-1.749-2.816C4.753,57.902,1,64.508,1,72c0,12.146,9.854,22,22,22
				c5.678,0,10.836-2.17,14.74-5.701L35.4,85.959z"/>
			<path opacity="0" fill="#08C076" d="M14.082,55.568c2.65-1.445,5.691-2.267,8.918-2.267c3.035,0,5.894,0.742,8.43,2.03
				l1.668-2.862C30.071,50.9,26.645,50,23,50c-3.87,0-7.502,1.007-10.662,2.764L14.082,55.568z"/>
		</g>
	</g>
</g>
<g>
	<g>
		<g>
			<path fill="#FFFFFF" d="M55.783,13.628h5.46c0.3,0,0.675,0.01,1.125,0.03c0.45,0.021,0.919,0.085,1.41,0.195
				c0.49,0.11,0.98,0.29,1.47,0.54c0.49,0.25,0.93,0.605,1.32,1.065s0.705,1.04,0.945,1.74c0.24,0.7,0.36,1.56,0.36,2.58
				c0,1-0.149,1.885-0.447,2.655c-0.298,0.771-0.721,1.42-1.267,1.95c-0.546,0.53-1.197,0.93-1.952,1.2
				c-0.756,0.27-1.58,0.405-2.474,0.405h-3.25v9.06h-2.7V13.628z M58.482,23.828h3.15c0.96,0,1.79-0.34,2.49-1.02
				c0.7-0.68,1.05-1.729,1.05-3.15c0-1.2-0.29-2.145-0.87-2.835s-1.53-1.035-2.85-1.035h-2.97V23.828z"/>
			<path fill="#FFFFFF" d="M72.042,27.308c0,0.621,0.015,1.29,0.044,2.01s0.142,1.39,0.338,2.01
				c0.196,0.621,0.495,1.136,0.896,1.545c0.401,0.41,0.984,0.615,1.748,0.615c0.587,0,1.057-0.135,1.41-0.405s0.622-0.6,0.808-0.99
				s0.309-0.8,0.368-1.23c0.059-0.43,0.088-0.795,0.088-1.095h2.58c0,0.42-0.075,0.955-0.225,1.605
				c-0.15,0.65-0.425,1.28-0.825,1.89c-0.4,0.61-0.95,1.13-1.65,1.56c-0.701,0.43-1.601,0.645-2.7,0.645
				c-1.98,0-3.405-0.68-4.275-2.04c-0.87-1.36-1.305-3.43-1.305-6.21c0-1,0.065-2.015,0.195-3.045c0.13-1.03,0.4-1.96,0.81-2.79
				c0.41-0.83,0.99-1.51,1.74-2.04c0.75-0.53,1.745-0.795,2.985-0.795c1.22,0,2.19,0.24,2.91,0.72s1.26,1.095,1.62,1.845
				c0.36,0.75,0.589,1.585,0.69,2.505c0.1,0.92,0.15,1.811,0.15,2.67v1.02H72.042z M77.742,25.328v-0.87
				c0-0.44-0.039-0.895-0.117-1.365c-0.079-0.47-0.221-0.895-0.426-1.275c-0.206-0.38-0.485-0.69-0.837-0.93
				c-0.353-0.24-0.803-0.36-1.351-0.36c-0.646,0-1.161,0.175-1.542,0.525c-0.382,0.35-0.671,0.755-0.867,1.215
				s-0.323,0.925-0.381,1.395c-0.059,0.47-0.088,0.825-0.088,1.065v0.6H77.742z"/>
			<path fill="#FFFFFF" d="M84.252,14.289h2.52v4.68h2.79v1.98h-2.79v10.32c0,0.64,0.11,1.1,0.33,1.38
				c0.22,0.28,0.66,0.42,1.32,0.42c0.28,0,0.5-0.01,0.66-0.03c0.16-0.02,0.31-0.04,0.45-0.06v2.07c-0.161,0.04-0.41,0.08-0.75,0.12
				c-0.34,0.04-0.771,0.06-1.29,0.06c-0.66,0-1.2-0.065-1.62-0.195s-0.75-0.33-0.99-0.6c-0.24-0.27-0.405-0.604-0.495-1.005
				c-0.09-0.4-0.135-0.859-0.135-1.38v-11.1h-2.34v-1.98h2.34V14.289z"/>
			<path fill="#FFFFFF" d="M99.162,13.628h2.61h0.81l7.08,17.88h0.06v-17.88h2.64v21.42h-2.61h-1.02l-6.87-17.34h-0.06v17.34h-2.64
				V13.628z"/>
			<path fill="#FFFFFF" d="M126.642,35.048h-2.4v-1.89h-0.06c-0.34,0.74-0.88,1.31-1.62,1.71c-0.74,0.4-1.5,0.6-2.28,0.6
				c-1.06,0-1.875-0.175-2.445-0.525s-0.99-0.785-1.26-1.305c-0.27-0.52-0.425-1.075-0.465-1.665c-0.04-0.589-0.06-1.125-0.06-1.605
				v-11.4h2.52v11.1c0,0.3,0.015,0.64,0.045,1.02c0.03,0.38,0.125,0.735,0.285,1.065c0.16,0.33,0.395,0.605,0.705,0.825
				c0.31,0.22,0.754,0.33,1.335,0.33c0.34,0,0.695-0.06,1.065-0.18c0.37-0.12,0.715-0.31,1.035-0.57
				c0.319-0.259,0.58-0.595,0.78-1.005c0.2-0.41,0.3-0.905,0.3-1.485v-11.1h2.52V35.048z"/>
			<path fill="#FFFFFF" d="M130.481,18.968h2.4v1.89h0.06c0.34-0.74,0.88-1.31,1.62-1.71c0.739-0.4,1.5-0.6,2.28-0.6
				c0.96,0,1.715,0.195,2.265,0.585c0.55,0.39,0.955,1.045,1.215,1.965c0.36-0.7,0.875-1.3,1.545-1.8
				c0.67-0.5,1.425-0.75,2.265-0.75c1.06,0,1.875,0.175,2.445,0.525c0.57,0.35,0.99,0.785,1.26,1.305s0.425,1.075,0.465,1.665
				s0.06,1.125,0.06,1.605v11.4h-2.52v-11.1c0-0.3-0.015-0.64-0.045-1.02c-0.03-0.379-0.115-0.735-0.255-1.065
				c-0.14-0.33-0.355-0.604-0.645-0.825c-0.291-0.22-0.695-0.33-1.215-0.33c-0.3,0-0.625,0.05-0.975,0.15
				c-0.351,0.1-0.675,0.275-0.975,0.525c-0.3,0.25-0.55,0.585-0.75,1.005c-0.2,0.42-0.3,0.94-0.3,1.56v11.1h-2.52v-11.1
				c0-0.3-0.015-0.64-0.045-1.02c-0.03-0.379-0.115-0.735-0.255-1.065c-0.14-0.33-0.355-0.604-0.645-0.825
				c-0.29-0.22-0.695-0.33-1.215-0.33c-0.3,0-0.625,0.05-0.975,0.15c-0.35,0.1-0.675,0.275-0.975,0.525
				c-0.3,0.25-0.55,0.585-0.75,1.005c-0.2,0.42-0.3,0.94-0.3,1.56v11.1h-2.52V18.968z"/>
			<path fill="#FFFFFF" d="M152.201,13.628h2.52v7.17h0.06c0.28-0.7,0.76-1.25,1.44-1.65c0.68-0.4,1.44-0.6,2.28-0.6
				c1.08,0,1.945,0.285,2.595,0.855s1.145,1.275,1.485,2.115c0.34,0.84,0.56,1.755,0.66,2.745c0.1,0.99,0.15,1.905,0.15,2.745
				c0,1.14-0.1,2.22-0.3,3.24c-0.2,1.02-0.51,1.915-0.93,2.685c-0.42,0.771-0.965,1.385-1.635,1.845
				c-0.67,0.46-1.465,0.69-2.385,0.69c-0.44,0-0.85-0.07-1.23-0.21c-0.38-0.14-0.725-0.32-1.035-0.54
				c-0.311-0.22-0.57-0.475-0.78-0.765c-0.21-0.29-0.355-0.585-0.435-0.885h-0.06v1.98h-2.4V13.628z M154.571,27.008
				c0,0.82,0.04,1.61,0.119,2.37c0.079,0.76,0.238,1.43,0.475,2.01c0.238,0.581,0.564,1.045,0.981,1.395
				c0.416,0.35,0.96,0.525,1.634,0.525c0.574,0,1.05-0.154,1.426-0.465c0.376-0.31,0.673-0.745,0.891-1.305
				c0.218-0.56,0.372-1.225,0.461-1.995c0.089-0.77,0.134-1.615,0.134-2.535c0-0.96-0.044-1.83-0.134-2.61
				c-0.089-0.78-0.243-1.44-0.461-1.98c-0.218-0.54-0.515-0.96-0.891-1.26c-0.376-0.3-0.852-0.45-1.426-0.45
				c-0.673,0-1.218,0.18-1.634,0.54c-0.417,0.36-0.743,0.84-0.981,1.44c-0.237,0.6-0.396,1.275-0.475,2.025
				S154.571,26.229,154.571,27.008z"/>
			<path fill="#FFFFFF" d="M168.551,27.308c0,0.621,0.015,1.29,0.044,2.01s0.142,1.39,0.338,2.01
				c0.196,0.621,0.495,1.136,0.896,1.545c0.401,0.41,0.984,0.615,1.748,0.615c0.587,0,1.057-0.135,1.41-0.405s0.622-0.6,0.808-0.99
				s0.309-0.8,0.368-1.23c0.059-0.43,0.088-0.795,0.088-1.095h2.58c0,0.42-0.075,0.955-0.225,1.605
				c-0.15,0.65-0.425,1.28-0.825,1.89c-0.4,0.61-0.95,1.13-1.65,1.56c-0.701,0.43-1.601,0.645-2.7,0.645
				c-1.98,0-3.405-0.68-4.275-2.04c-0.87-1.36-1.305-3.43-1.305-6.21c0-1,0.065-2.015,0.195-3.045c0.13-1.03,0.4-1.96,0.81-2.79
				c0.41-0.83,0.99-1.51,1.74-2.04c0.75-0.53,1.745-0.795,2.985-0.795c1.22,0,2.19,0.24,2.91,0.72s1.26,1.095,1.62,1.845
				c0.36,0.75,0.589,1.585,0.69,2.505c0.1,0.92,0.15,1.811,0.15,2.67v1.02H168.551z M174.25,25.328v-0.87
				c0-0.44-0.039-0.895-0.117-1.365c-0.079-0.47-0.221-0.895-0.426-1.275c-0.206-0.38-0.485-0.69-0.837-0.93
				c-0.353-0.24-0.803-0.36-1.351-0.36c-0.646,0-1.161,0.175-1.542,0.525c-0.382,0.35-0.671,0.755-0.867,1.215
				s-0.323,0.925-0.381,1.395c-0.059,0.47-0.088,0.825-0.088,1.065v0.6H174.25z"/>
			<path fill="#FFFFFF" d="M180.01,18.968h2.52v2.4h0.06c0.18-0.379,0.375-0.74,0.585-1.08s0.455-0.64,0.735-0.9
				c0.28-0.26,0.595-0.465,0.945-0.615c0.35-0.15,0.754-0.225,1.215-0.225c0.5,0,0.87,0.06,1.11,0.18v2.46
				c-0.12-0.02-0.275-0.045-0.465-0.075c-0.19-0.03-0.485-0.045-0.885-0.045c-0.32,0-0.67,0.075-1.05,0.225s-0.735,0.38-1.065,0.69
				s-0.61,0.705-0.84,1.185c-0.23,0.48-0.345,1.05-0.345,1.71v10.17h-2.52V18.968z"/>
			<path fill="#FFFFFF" d="M196.09,23.678c0-1.02-0.165-1.8-0.495-2.34c-0.33-0.54-0.956-0.81-1.875-0.81
				c-0.2,0-0.45,0.025-0.75,0.075c-0.3,0.05-0.585,0.155-0.855,0.315s-0.505,0.405-0.705,0.735c-0.2,0.33-0.3,0.775-0.3,1.335
				c0,0.48,0.115,0.87,0.345,1.17c0.229,0.3,0.53,0.555,0.9,0.765s0.79,0.385,1.26,0.525c0.47,0.14,0.955,0.29,1.455,0.45
				c0.48,0.16,0.955,0.335,1.425,0.525c0.47,0.19,0.89,0.45,1.26,0.78c0.37,0.33,0.67,0.75,0.9,1.26
				c0.229,0.51,0.345,1.165,0.345,1.965c0,0.84-0.13,1.575-0.39,2.205s-0.62,1.155-1.08,1.575c-0.46,0.42-1.01,0.735-1.65,0.945
				s-1.33,0.315-2.07,0.315c-1.36,0-2.415-0.22-3.165-0.66c-0.75-0.439-1.3-0.964-1.65-1.575c-0.35-0.61-0.555-1.235-0.615-1.875
				s-0.09-1.17-0.09-1.59h2.52c0,0.48,0.04,0.945,0.12,1.395c0.08,0.45,0.229,0.85,0.45,1.2c0.22,0.35,0.525,0.625,0.915,0.825
				c0.39,0.2,0.895,0.3,1.515,0.3c0.2,0,0.45-0.03,0.75-0.09s0.595-0.19,0.885-0.39c0.29-0.2,0.535-0.47,0.735-0.81
				c0.2-0.34,0.3-0.8,0.3-1.38c0-0.54-0.115-0.985-0.345-1.335c-0.23-0.35-0.53-0.64-0.9-0.87c-0.37-0.229-0.79-0.425-1.26-0.585
				c-0.47-0.16-0.945-0.32-1.425-0.48c-0.48-0.16-0.96-0.334-1.44-0.525c-0.48-0.19-0.905-0.445-1.275-0.765
				c-0.37-0.32-0.67-0.74-0.9-1.26c-0.23-0.52-0.345-1.19-0.345-2.01c0-0.74,0.135-1.39,0.405-1.95s0.64-1.025,1.11-1.395
				c0.47-0.37,1.015-0.645,1.635-0.825c0.62-0.18,1.279-0.27,1.98-0.27c1.16,0,2.07,0.18,2.73,0.54c0.66,0.36,1.15,0.8,1.47,1.32
				c0.32,0.521,0.515,1.076,0.585,1.665c0.07,0.59,0.105,1.125,0.105,1.605H196.09z"/>
		</g>
	</g>
	<g>
		<path fill="#FFFFFF" d="M33.613,17.46c-0.837-0.837-2.087-1.165-3.229-0.845c0.324-1.135,0.02-2.368-0.845-3.229
			c-0.619-0.623-1.448-0.966-2.331-0.966s-1.711,0.343-2.332,0.966c-1.123,1.124-1.278,2.877-0.403,4.172l-7.915,7.915
			c-0.54-0.364-1.185-0.563-1.839-0.563c-0.881,0-1.71,0.343-2.332,0.966c-0.623,0.623-0.967,1.452-0.966,2.333
			c0,0.881,0.343,1.707,0.966,2.33c0.836,0.838,2.087,1.164,3.227,0.846c-0.323,1.131-0.019,2.367,0.846,3.227
			c0.623,0.624,1.449,0.968,2.331,0.968s1.711-0.344,2.332-0.968c1.123-1.123,1.277-2.875,0.403-4.17l7.915-7.916
			c0.539,0.363,1.185,0.563,1.839,0.563c0.884,0,1.71-0.343,2.333-0.967c0.622-0.622,0.965-1.45,0.966-2.331
			C34.579,18.91,34.236,18.083,33.613,17.46z M19.754,31.521c0.386,0.487,0.344,1.187-0.098,1.628c-0.464,0.464-1.271,0.461-1.732,0
			c-0.383-0.384-0.471-0.961-0.223-1.437c0.365-0.7,0.234-1.542-0.321-2.091c-0.332-0.34-0.782-0.526-1.263-0.526
			c-0.288,0-0.573,0.069-0.832,0.204c-0.455,0.238-1.059,0.152-1.434-0.223c-0.232-0.232-0.361-0.541-0.361-0.867
			s0.129-0.636,0.361-0.866c0.43-0.428,1.155-0.47,1.629-0.097c0.691,0.544,1.756,0.479,2.371-0.139l8.257-8.255
			c0.642-0.641,0.7-1.663,0.137-2.373c-0.385-0.488-0.343-1.187,0.099-1.629c0.463-0.462,1.271-0.459,1.732,0
			c0.383,0.384,0.471,0.961,0.222,1.438c-0.364,0.701-0.233,1.542,0.322,2.09c0.532,0.543,1.405,0.68,2.095,0.322
			c0.454-0.24,1.058-0.152,1.434,0.222c0.232,0.23,0.361,0.542,0.361,0.868c0,0.326-0.129,0.635-0.361,0.866
			c-0.428,0.428-1.156,0.467-1.627,0.098c-0.688-0.543-1.75-0.485-2.373,0.136l-8.257,8.257
			C19.253,29.789,19.192,30.811,19.754,31.521z"/>
		<g>
			<path opacity="0.4" fill="#FFFFFF" d="M40.818,18.342l3.21-0.815c-1.526-4.965-4.769-9.172-9.032-11.953L33.337,8.43
				C36.842,10.766,39.518,14.249,40.818,18.342z"/>
			<path opacity="0.7" fill="#FFFFFF" d="M39.293,38.74C42.83,34.842,45,29.678,45,24c0-1.486-0.152-2.937-0.433-4.34l-3.212,0.815
				c0.215,1.143,0.344,2.319,0.344,3.524c0,4.756-1.805,9.096-4.741,12.4L39.293,38.74z"/>
			<path fill="#FFFFFF" d="M35.4,37.959c-3.305,2.941-7.645,4.74-12.4,4.74C12.688,42.699,4.301,34.312,4.301,24
				c0-6.297,3.138-11.864,7.92-15.255l-1.749-2.816C4.753,9.902,1,16.508,1,24c0,12.146,9.854,22,22,22
				c5.678,0,10.836-2.17,14.74-5.701L35.4,37.959z"/>
			<path opacity="0" fill="#FFFFFF" d="M14.082,7.568c2.65-1.445,5.691-2.267,8.918-2.267c3.035,0,5.894,0.742,8.43,2.03
				l1.668-2.862C30.071,2.9,26.645,2,23,2c-3.87,0-7.502,1.007-10.662,2.764L14.082,7.568z"/>
		</g>
	</g>
</g>
</svg>
