<?xml version="1.0" encoding="utf-8"?>
<!-- Generator: Adobe Illustrator 16.0.0, SVG Export Plug-In . SVG Version: 6.00 Build 0)  -->
<!DOCTYPE svg PUBLIC "-//W3C//DTD SVG 1.1//EN" "http://www.w3.org/Graphics/SVG/1.1/DTD/svg11.dtd">
<svg version="1.1" id="Capa_1" xmlns="http://www.w3.org/2000/svg" xmlns:xlink="http://www.w3.org/1999/xlink" x="0px" y="0px"
	 width="80px" height="80px" viewBox="0 0 80 80" enable-background="new 0 0 80 80" xml:space="preserve">
<path fill="#08C076" d="M54.283,16c-4.969,0-9.369,2.517-11.992,6.296c0,0-0.887,1.313-2.291,1.313
	c-1.402,0-2.287-1.313-2.287-1.313C35.086,18.517,30.703,16,25.734,16c-8.047,0-14.561,6.514-14.561,14.546
	c0,1.904,0.371,3.721,1.031,5.373C16.283,48.576,34.512,63.452,40,64c5.488-0.548,23.715-15.424,27.793-28.08
	c0.664-1.653,1.033-3.47,1.033-5.374C68.826,22.514,62.314,16,54.283,16z"/>
</svg>
